<svg width="432" height="125" viewBox="0 0 432 125" fill="none" xmlns="http://www.w3.org/2000/svg">
<path d="M101.626 30.5459L50.5863 67.8059L28.7363 54.1109V65.7909L50.5863 79.4859L101.626 42.1959V30.5459Z" fill="url(#paint0_linear_901_63)"/>
<mask id="mask0_901_63" style="mask-type:luminance" maskUnits="userSpaceOnUse" x="0" y="3" width="102" height="119">
<path d="M90.4151 61.9174C84.205 89.6874 60.24 105.222 50.72 110.417C39.72 104.447 9.52501 84.7024 9.52501 48.2974V27.2474C29.86 24.6324 43.525 18.8224 50.72 15.0124C57.665 18.7024 70.72 24.2524 89.9901 26.9774L101.415 18.6324C69.45 16.2724 52.61 5.24738 50.72 3.94238C48.825 5.24738 31.98 16.2824 0 18.6374V48.2824C0 97.6874 47.5 119.622 50.72 121.057C53.825 119.677 97.72 99.3874 101.22 54.0274L90.4151 61.9174Z" fill="white"/>
</mask>
<g mask="url(#mask0_901_63)">
<path d="M14.4693 61.3871C14.4693 60.6521 14.4693 59.9221 14.5243 59.1921L-0.740662 58.5371C-0.780662 59.4821 -0.805664 60.4321 -0.805664 61.3871C-0.805664 77.1421 5.12434 91.3871 14.6943 101.732L25.8944 89.6721C18.5343 81.7271 14.4693 73.4871 14.4693 61.3871Z" fill="url(#paint1_linear_901_63)"/>
<path d="M52.1749 17.5125C52.8599 17.5125 53.5349 17.5125 54.2149 17.5725L54.8449 1.31247C53.9649 1.26747 53.0849 -0.477539 52.1949 -0.477539C37.5649 -0.477539 18.5049 4.45747 8.91992 14.7825L23.4199 30.3775C30.7549 22.4325 40.9449 17.5125 52.1749 17.5125Z" fill="url(#paint2_linear_901_63)"/>
<path d="M52.1743 105.268C51.4943 105.268 50.8143 105.268 50.1393 105.213L49.5293 118.373C50.4043 118.418 51.2893 121.268 52.1743 121.268C66.8093 121.268 80.0543 112.063 89.6443 101.733L76.9393 88.0527C69.5593 95.9977 63.4093 105.268 52.1743 105.268Z" fill="url(#paint3_linear_901_63)"/>
<path d="M93.9598 36.2726L109.515 23.3526C100.42 15.4376 64.5148 1.01758 51.9248 1.01758L52.1748 4.32759V17.5126C60.6948 17.5126 84.8848 33.9276 93.9598 36.2726Z" fill="url(#paint4_linear_901_63)"/>
<path d="M105.164 61.3877C105.164 57.8877 101.044 38.3877 100.484 35.0977L88.6245 41.8677C88.6245 42.2577 87.7145 60.9927 87.7145 61.3677C87.7145 74.2527 83.9995 79.2127 76.6895 87.7827L87.7195 103.678C98.4345 93.2577 105.164 78.1727 105.164 61.3877Z" fill="url(#paint5_linear_901_63)"/>
<path d="M52.1748 105.267C40.2148 105.267 31.9348 96.9921 24.4748 88.1221L12.8848 99.6671C22.5798 111.197 36.5948 121.267 52.1748 121.267V105.267Z" fill="url(#paint6_linear_901_63)"/>
<path d="M24.8446 28.8669L5.84461 7.46191C-4.8654 17.9069 -3.9854 44.6069 -3.9854 61.3869H14.3446C14.3446 48.5019 16.6146 36.9019 24.8446 28.8669Z" fill="url(#paint7_linear_901_63)"/>
</g>
<path d="M133.695 62H123.149L139.217 15.4545H151.899L167.945 62H157.399L145.74 26.0909H145.376L133.695 62ZM133.036 43.7045H157.945V51.3864H133.036V43.7045ZM183.047 41.8182V62H173.365V27.0909H182.592V33.25H183.001C183.774 31.2197 185.07 29.6136 186.888 28.4318C188.706 27.2348 190.911 26.6364 193.501 26.6364C195.926 26.6364 198.039 27.1667 199.842 28.2273C201.645 29.2879 203.047 30.803 204.047 32.7727C205.047 34.7273 205.547 37.0606 205.547 39.7727V62H195.865V41.5C195.88 39.3636 195.335 37.697 194.229 36.5C193.123 35.2879 191.6 34.6818 189.661 34.6818C188.358 34.6818 187.206 34.9621 186.206 35.5227C185.221 36.0833 184.448 36.9015 183.888 37.9773C183.342 39.0379 183.062 40.3182 183.047 41.8182ZM231.746 27.0909V34.3636H210.723V27.0909H231.746ZM215.496 18.7273H225.178V51.2727C225.178 52.1667 225.314 52.8636 225.587 53.3636C225.859 53.8485 226.238 54.1894 226.723 54.3864C227.223 54.5833 227.799 54.6818 228.45 54.6818C228.905 54.6818 229.359 54.6439 229.814 54.5682C230.269 54.4773 230.617 54.4091 230.859 54.3636L232.382 61.5682C231.897 61.7197 231.215 61.8939 230.337 62.0909C229.458 62.303 228.39 62.4318 227.132 62.4773C224.799 62.5682 222.753 62.2576 220.996 61.5455C219.253 60.8333 217.897 59.7273 216.928 58.2273C215.958 56.7273 215.481 54.8333 215.496 52.5455V18.7273ZM238.053 62V27.0909H247.734V62H238.053ZM242.916 22.5909C241.477 22.5909 240.242 22.1136 239.212 21.1591C238.197 20.1894 237.689 19.0303 237.689 17.6818C237.689 16.3485 238.197 15.2045 239.212 14.25C240.242 13.2803 241.477 12.7955 242.916 12.7955C244.356 12.7955 245.583 13.2803 246.598 14.25C247.628 15.2045 248.144 16.3485 248.144 17.6818C248.144 19.0303 247.628 20.1894 246.598 21.1591C245.583 22.1136 244.356 22.5909 242.916 22.5909ZM255.672 62V15.4545H286.49V23.5682H265.513V34.6591H284.445V42.7727H265.513V62H255.672ZM292.365 62V27.0909H301.751V33.1818H302.115C302.751 31.0152 303.82 29.3788 305.32 28.2727C306.82 27.1515 308.547 26.5909 310.501 26.5909C310.986 26.5909 311.509 26.6212 312.07 26.6818C312.63 26.7424 313.123 26.8258 313.547 26.9318V35.5227C313.092 35.3864 312.464 35.2652 311.661 35.1591C310.858 35.053 310.123 35 309.456 35C308.032 35 306.759 35.3106 305.638 35.9318C304.532 36.5379 303.653 37.3864 303.001 38.4773C302.365 39.5682 302.047 40.8258 302.047 42.25V62H292.365ZM327.507 62.6591C325.28 62.6591 323.295 62.2727 321.553 61.5C319.81 60.7121 318.431 59.553 317.416 58.0227C316.416 56.4773 315.916 54.553 315.916 52.25C315.916 50.3106 316.272 48.6818 316.984 47.3636C317.697 46.0455 318.666 44.9848 319.894 44.1818C321.121 43.3788 322.515 42.7727 324.075 42.3636C325.651 41.9545 327.303 41.6667 329.03 41.5C331.06 41.2879 332.697 41.0909 333.939 40.9091C335.181 40.7121 336.083 40.4242 336.644 40.0455C337.204 39.6667 337.484 39.1061 337.484 38.3636V38.2273C337.484 36.7879 337.03 35.6742 336.121 34.8864C335.227 34.0985 333.954 33.7045 332.303 33.7045C330.56 33.7045 329.174 34.0909 328.144 34.8636C327.113 35.6212 326.431 36.5758 326.098 37.7273L317.144 37C317.598 34.8788 318.492 33.0455 319.825 31.5C321.159 29.9394 322.878 28.7424 324.984 27.9091C327.106 27.0606 329.56 26.6364 332.348 26.6364C334.287 26.6364 336.144 26.8636 337.916 27.3182C339.704 27.7727 341.287 28.4773 342.666 29.4318C344.06 30.3864 345.159 31.6136 345.962 33.1136C346.765 34.5985 347.166 36.3788 347.166 38.4545V62H337.984V57.1591H337.712C337.151 58.25 336.401 59.2121 335.462 60.0455C334.522 60.8636 333.394 61.5076 332.075 61.9773C330.757 62.4318 329.234 62.6591 327.507 62.6591ZM330.28 55.9773C331.704 55.9773 332.962 55.697 334.053 55.1364C335.144 54.5606 336 53.7879 336.621 52.8182C337.242 51.8485 337.553 50.75 337.553 49.5227V45.8182C337.25 46.0152 336.833 46.197 336.303 46.3636C335.787 46.5152 335.204 46.6591 334.553 46.7955C333.901 46.9167 333.25 47.0303 332.598 47.1364C331.947 47.2273 331.356 47.3106 330.825 47.3864C329.689 47.553 328.697 47.8182 327.848 48.1818C327 48.5455 326.34 49.0379 325.871 49.6591C325.401 50.2652 325.166 51.0227 325.166 51.9318C325.166 53.25 325.644 54.2576 326.598 54.9545C327.568 55.6364 328.795 55.9773 330.28 55.9773ZM377.064 47.1364V27.0909H386.746V62H377.45V55.6591H377.087C376.299 57.7045 374.988 59.3485 373.155 60.5909C371.337 61.8333 369.117 62.4545 366.496 62.4545C364.162 62.4545 362.109 61.9242 360.337 60.8636C358.564 59.803 357.178 58.2955 356.178 56.3409C355.193 54.3864 354.693 52.0455 354.678 49.3182V27.0909H364.359V47.5909C364.375 49.6515 364.928 51.2803 366.019 52.4773C367.109 53.6742 368.572 54.2727 370.405 54.2727C371.572 54.2727 372.662 54.0076 373.678 53.4773C374.693 52.9318 375.511 52.1288 376.132 51.0682C376.769 50.0076 377.079 48.697 377.064 47.1364ZM407.354 62.5682C404.702 62.5682 402.301 61.8864 400.149 60.5227C398.013 59.1439 396.316 57.1212 395.058 54.4545C393.816 51.7727 393.195 48.4848 393.195 44.5909C393.195 40.5909 393.839 37.2652 395.126 34.6136C396.414 31.947 398.126 29.9545 400.263 28.6364C402.414 27.303 404.77 26.6364 407.331 26.6364C409.286 26.6364 410.914 26.9697 412.217 27.6364C413.536 28.2879 414.596 29.1061 415.399 30.0909C416.217 31.0606 416.839 32.0152 417.263 32.9545H417.558V15.4545H427.217V62H417.672V56.4091H417.263C416.808 57.3788 416.164 58.3409 415.331 59.2955C414.513 60.2348 413.445 61.0152 412.126 61.6364C410.823 62.2576 409.233 62.5682 407.354 62.5682ZM410.422 54.8636C411.983 54.8636 413.301 54.4394 414.376 53.5909C415.467 52.7273 416.301 51.5227 416.876 49.9773C417.467 48.4318 417.763 46.6212 417.763 44.5455C417.763 42.4697 417.475 40.6667 416.899 39.1364C416.323 37.6061 415.49 36.4242 414.399 35.5909C413.308 34.7576 411.983 34.3409 410.422 34.3409C408.831 34.3409 407.49 34.7727 406.399 35.6364C405.308 36.5 404.483 37.697 403.922 39.2273C403.361 40.7576 403.081 42.5303 403.081 44.5455C403.081 46.5758 403.361 48.3712 403.922 49.9318C404.498 51.4773 405.323 52.6894 406.399 53.5682C407.49 54.4318 408.831 54.8636 410.422 54.8636Z" fill="white"/>
<path d="M322.823 93.2727V86.9091H348.107V93.2727H339.357V116H331.573V93.2727H322.823ZM358.484 116.398C356.154 116.398 354.147 115.953 352.461 115.062C350.785 114.163 349.492 112.875 348.583 111.199C347.684 109.513 347.234 107.496 347.234 105.148C347.234 102.894 347.688 100.924 348.597 99.2386C349.506 97.553 350.79 96.2415 352.447 95.304C354.104 94.3665 356.059 93.8977 358.313 93.8977C359.961 93.8977 361.452 94.1534 362.788 94.6648C364.123 95.1761 365.264 95.9195 366.211 96.8949C367.158 97.8608 367.887 99.035 368.398 100.418C368.91 101.8 369.166 103.358 369.166 105.091V106.909H349.677V102.591H361.95C361.94 101.966 361.779 101.417 361.467 100.943C361.164 100.46 360.752 100.086 360.231 99.821C359.72 99.5464 359.137 99.4091 358.484 99.4091C357.849 99.4091 357.267 99.5464 356.737 99.821C356.206 100.086 355.78 100.455 355.458 100.929C355.146 101.402 354.98 101.956 354.961 102.591V107.25C354.961 107.951 355.108 108.576 355.401 109.125C355.695 109.674 356.116 110.105 356.666 110.418C357.215 110.73 357.878 110.886 358.654 110.886C359.194 110.886 359.686 110.811 360.131 110.659C360.586 110.508 360.974 110.29 361.296 110.006C361.618 109.712 361.855 109.362 362.006 108.955H369.166C368.919 110.47 368.337 111.786 367.418 112.903C366.5 114.011 365.283 114.873 363.768 115.489C362.262 116.095 360.501 116.398 358.484 116.398ZM378.445 116.341C377.053 116.341 375.822 116.114 374.751 115.659C373.691 115.195 372.858 114.494 372.251 113.557C371.645 112.619 371.342 111.426 371.342 109.977C371.342 108.784 371.546 107.766 371.953 106.923C372.36 106.071 372.929 105.375 373.658 104.835C374.387 104.295 375.234 103.884 376.2 103.599C377.176 103.315 378.227 103.131 379.354 103.045C380.575 102.951 381.555 102.837 382.294 102.705C383.042 102.562 383.582 102.368 383.913 102.122C384.245 101.866 384.411 101.53 384.411 101.114V101.057C384.411 100.489 384.193 100.053 383.757 99.75C383.322 99.447 382.763 99.2955 382.081 99.2955C381.333 99.2955 380.722 99.4612 380.249 99.7926C379.785 100.115 379.505 100.612 379.411 101.284H372.195C372.289 99.9583 372.711 98.7367 373.459 97.6193C374.216 96.4924 375.32 95.5928 376.769 94.9205C378.217 94.2386 380.026 93.8977 382.195 93.8977C383.757 93.8977 385.159 94.0824 386.399 94.4517C387.64 94.8116 388.696 95.3182 389.567 95.9716C390.438 96.6155 391.101 97.3731 391.555 98.2443C392.019 99.1061 392.251 100.044 392.251 101.057V116H384.922V112.932H384.751C384.316 113.746 383.786 114.404 383.161 114.906C382.545 115.408 381.84 115.773 381.044 116C380.258 116.227 379.392 116.341 378.445 116.341ZM381.001 111.398C381.598 111.398 382.157 111.275 382.678 111.028C383.208 110.782 383.639 110.427 383.97 109.963C384.302 109.499 384.467 108.936 384.467 108.273V106.455C384.259 106.54 384.037 106.62 383.8 106.696C383.572 106.772 383.326 106.843 383.061 106.909C382.805 106.975 382.531 107.037 382.237 107.094C381.953 107.151 381.655 107.203 381.342 107.25C380.736 107.345 380.239 107.501 379.851 107.719C379.472 107.927 379.188 108.188 378.999 108.5C378.819 108.803 378.729 109.144 378.729 109.523C378.729 110.129 378.942 110.593 379.368 110.915C379.794 111.237 380.339 111.398 381.001 111.398ZM395.998 116V94.1818H403.441V98.3295H403.668C404.123 96.9659 404.899 95.8864 405.998 95.0909C407.096 94.2955 408.403 93.8977 409.918 93.8977C411.452 93.8977 412.773 94.3049 413.881 95.1193C414.989 95.9242 415.657 96.9943 415.884 98.3295H416.112C416.481 96.9943 417.267 95.9242 418.47 95.1193C419.672 94.3049 421.083 93.8977 422.702 93.8977C424.795 93.8977 426.49 94.5701 427.788 95.9148C429.095 97.2595 429.748 99.0492 429.748 101.284V116H421.907V103.273C421.907 102.316 421.666 101.568 421.183 101.028C420.7 100.479 420.051 100.205 419.237 100.205C418.432 100.205 417.792 100.479 417.319 101.028C416.855 101.568 416.623 102.316 416.623 103.273V116H409.123V103.273C409.123 102.316 408.881 101.568 408.398 101.028C407.916 100.479 407.267 100.205 406.452 100.205C405.913 100.205 405.449 100.328 405.06 100.574C404.672 100.82 404.369 101.175 404.151 101.639C403.943 102.094 403.839 102.638 403.839 103.273V116H395.998Z" fill="white"/>
<defs>
<linearGradient id="paint0_linear_901_63" x1="65.1813" y1="30.5459" x2="65.1813" y2="79.4859" gradientUnits="userSpaceOnUse">
<stop stop-color="white"/>
</linearGradient>
<linearGradient id="paint1_linear_901_63" x1="12.5443" y1="58.5371" x2="12.5443" y2="101.732" gradientUnits="userSpaceOnUse">
<stop stop-color="white"/>
</linearGradient>
<linearGradient id="paint2_linear_901_63" x1="31.8824" y1="-0.477539" x2="31.8824" y2="30.3775" gradientUnits="userSpaceOnUse">
<stop stop-color="white"/>
</linearGradient>
<linearGradient id="paint3_linear_901_63" x1="69.5868" y1="88.0527" x2="69.5868" y2="121.268" gradientUnits="userSpaceOnUse">
<stop stop-color="white"/>
</linearGradient>
<linearGradient id="paint4_linear_901_63" x1="80.7198" y1="1.01758" x2="80.7198" y2="36.2726" gradientUnits="userSpaceOnUse">
<stop stop-color="white"/>
</linearGradient>
<linearGradient id="paint5_linear_901_63" x1="90.927" y1="35.0977" x2="90.927" y2="103.678" gradientUnits="userSpaceOnUse">
<stop stop-color="white"/>
</linearGradient>
<linearGradient id="paint6_linear_901_63" x1="32.5298" y1="88.1221" x2="32.5298" y2="121.267" gradientUnits="userSpaceOnUse">
<stop stop-color="white"/>
</linearGradient>
<linearGradient id="paint7_linear_901_63" x1="10.4208" y1="7.46191" x2="10.4208" y2="61.3869" gradientUnits="userSpaceOnUse">
<stop stop-color="white"/>
</linearGradient>
</defs>
</svg>
